<svg width="203" height="199" viewBox="0 0 203 199" fill="none" xmlns="http://www.w3.org/2000/svg">
<path d="M30.0921 132.061H75.1455C76.5312 132.061 77.7322 131.109 78.022 129.778C85.6813 94.5629 116.634 69.0121 153.293 67.6398C154.914 67.578 156.182 66.2386 156.119 64.6479C156.056 63.0572 154.683 61.8208 153.07 61.8744C133.96 62.5873 115.391 69.6921 100.773 81.8782C86.9369 93.4173 77.0646 109.114 72.8065 126.291H33.506C37.6927 101.033 49.6898 78.1074 68.3428 59.8097C91.8584 36.7275 123.126 24.018 156.392 24.018H165.513V64.7015C165.513 66.2963 166.827 67.5862 168.452 67.5862C170.077 67.5862 171.392 66.2963 171.392 64.7015V21.1292C171.392 19.5343 170.077 18.2444 168.452 18.2444H156.392C121.555 18.2444 88.8098 31.5555 64.1856 55.7257C43.8151 75.713 31.0201 100.975 27.1862 128.789C27.0728 129.613 27.329 130.445 27.8875 131.072C28.4376 131.698 29.2439 132.061 30.0921 132.061Z" fill="#BCBCBC"/>
<path d="M172.744 81.0581H195.012C199.069 81.0581 202.248 78.5525 202.248 75.3504V6.16548C202.248 2.96339 199.069 0.457764 195.012 0.457764H172.744C168.687 0.457764 165.509 2.96339 165.509 6.16548V75.3504C165.504 78.5525 168.683 81.0581 172.744 81.0581ZM196.369 74.9795C196.133 75.1155 195.663 75.2886 195.012 75.2886H172.744C172.093 75.2886 171.618 75.1155 171.387 74.9795V6.53638C171.623 6.40038 172.093 6.22729 172.744 6.22729H195.012C195.663 6.22729 196.138 6.40038 196.369 6.53638V74.9795Z" fill="#BCBCBC"/>
<path d="M102.159 49.3133C102.625 49.3133 103.104 49.202 103.545 48.9712C115.223 42.839 127.829 38.8375 141.023 37.0778C142.631 36.8635 143.757 35.4087 143.538 33.8303C143.32 32.252 141.838 31.1475 140.229 31.3618C126.343 33.2163 113.069 37.428 100.773 43.8817C99.3415 44.6317 98.804 46.3832 99.5683 47.7844C100.093 48.7611 101.109 49.3133 102.159 49.3133Z" fill="#BCBCBC"/>
<path d="M6.92528 157.62H96.6752C100.081 157.62 102.856 154.9 102.856 151.562V132.349C102.856 129.007 100.085 126.291 96.6752 126.291H6.92528C3.51971 126.291 0.752426 129.011 0.752426 132.349V151.562C0.752426 154.9 3.52391 157.62 6.92528 157.62ZM96.6752 132.061C96.839 132.061 96.9775 132.193 96.9775 132.349V151.562C96.9775 151.723 96.8474 151.85 96.6752 151.85H6.92528C6.76151 151.85 6.63133 151.718 6.63133 151.562V132.349C6.63133 132.189 6.76571 132.061 6.92528 132.061H96.6752Z" fill="#BCBCBC"/>
<path d="M17.1545 198.538H86.4458C88.0709 198.538 89.3853 197.248 89.3853 195.653V154.735C89.3853 153.14 88.0709 151.85 86.4458 151.85H17.1545C15.5294 151.85 14.2151 153.14 14.2151 154.735V163.258C14.2151 164.852 15.5294 166.142 17.1545 166.142C18.7796 166.142 20.094 164.852 20.094 163.258V157.62H83.5063V192.769H20.094V186.447C20.094 184.852 18.7796 183.562 17.1545 183.562C15.5294 183.562 14.2151 184.852 14.2151 186.447V195.653C14.2151 197.248 15.5336 198.538 17.1545 198.538Z" fill="#BCBCBC"/>
<path d="M17.1543 178.077C17.3475 178.077 17.5406 178.061 17.7296 178.023C17.9186 177.986 18.1033 177.929 18.2797 177.859C18.4561 177.784 18.6282 177.698 18.7878 177.595C18.9474 177.488 19.0985 177.368 19.2329 177.236C19.3715 177.1 19.4933 176.952 19.5982 176.795C19.7074 176.639 19.7956 176.474 19.8712 176.297C19.9426 176.124 20.0014 175.942 20.0392 175.757C20.077 175.571 20.0938 175.382 20.0938 175.196C20.0938 175.007 20.077 174.817 20.0392 174.632C20.0014 174.446 19.9426 174.265 19.8712 174.092C19.7956 173.919 19.7074 173.75 19.5982 173.593C19.4933 173.437 19.3715 173.288 19.2329 173.156C19.0985 173.02 18.9474 172.901 18.7878 172.798C18.6282 172.691 18.4561 172.604 18.2797 172.53C18.1033 172.46 17.9186 172.402 17.7296 172.365C17.3517 172.291 16.9611 172.291 16.5832 172.365C16.3942 172.402 16.2095 172.46 16.0331 172.53C15.8525 172.604 15.6846 172.691 15.525 172.798C15.3612 172.901 15.2143 173.02 15.0757 173.156C14.9413 173.288 14.8195 173.437 14.7103 173.593C14.6054 173.75 14.5172 173.919 14.4416 174.092C14.366 174.265 14.3114 174.446 14.2736 174.632C14.2358 174.817 14.2148 175.007 14.2148 175.196C14.2148 175.382 14.2358 175.571 14.2736 175.757C14.3114 175.942 14.366 176.124 14.4416 176.297C14.5172 176.474 14.6054 176.639 14.7103 176.795C14.8195 176.952 14.9413 177.1 15.0757 177.236C15.2143 177.368 15.3654 177.488 15.525 177.595C15.6846 177.698 15.8525 177.784 16.0331 177.859C16.2095 177.929 16.3942 177.986 16.5832 178.023C16.7722 178.061 16.9653 178.077 17.1543 178.077Z" fill="#BCBCBC"/>
<path d="M86.0425 143.814C86.2356 143.814 86.4288 143.798 86.6178 143.761C86.8025 143.724 86.9873 143.666 87.1679 143.596C87.3442 143.522 87.5164 143.431 87.676 143.328C87.8355 143.225 87.9867 143.101 88.1211 142.969C88.2555 142.838 88.3772 142.689 88.4864 142.533C88.5914 142.376 88.6838 142.207 88.7552 142.034C88.8308 141.861 88.8853 141.679 88.9231 141.494C88.9609 141.309 88.9819 141.119 88.9819 140.929C88.9819 140.744 88.9609 140.554 88.9231 140.365C88.8853 140.184 88.8308 140.002 88.7552 139.825C88.6838 139.652 88.5914 139.483 88.4864 139.33C88.3772 139.17 88.2555 139.021 88.1211 138.889C87.5752 138.354 86.8151 138.045 86.0425 138.045C85.2698 138.045 84.5098 138.354 83.9639 138.889C83.418 139.429 83.103 140.171 83.103 140.929C83.103 141.119 83.124 141.309 83.1618 141.494C83.1996 141.679 83.2542 141.861 83.3298 142.034C83.4012 142.207 83.4936 142.376 83.5985 142.533C83.7077 142.689 83.8295 142.838 83.9639 142.969C84.0982 143.101 84.2494 143.225 84.409 143.328C84.5685 143.431 84.7407 143.522 84.9171 143.596C85.0977 143.666 85.2824 143.724 85.4672 143.761C85.6562 143.798 85.8493 143.814 86.0425 143.814Z" fill="#BCBCBC"/>
<path d="M72.3489 143.814C72.5379 143.814 72.7311 143.798 72.92 143.76C73.109 143.723 73.2937 143.666 73.4701 143.596C73.6507 143.521 73.8186 143.431 73.9782 143.328C74.1378 143.225 74.289 143.101 74.4275 142.969C74.5619 142.837 74.6837 142.689 74.7929 142.532C74.8978 142.376 74.986 142.207 75.0616 142.034C75.133 141.861 75.1918 141.679 75.2296 141.494C75.2674 141.308 75.2842 141.119 75.2842 140.929C75.2842 140.744 75.2674 140.554 75.2296 140.365C75.1918 140.183 75.133 140.002 75.0616 139.825C74.986 139.652 74.8978 139.483 74.7929 139.33C74.6837 139.17 74.5619 139.021 74.4275 138.889C74.289 138.758 74.1378 138.638 73.9782 138.531C73.8186 138.428 73.6507 138.337 73.4701 138.267C73.2937 138.193 73.109 138.139 72.92 138.102C72.5421 138.028 72.1516 138.028 71.7736 138.102C71.5847 138.139 71.3999 138.193 71.2235 138.267C71.0472 138.337 70.875 138.428 70.7154 138.531C70.5559 138.638 70.4047 138.758 70.2703 138.889C70.1317 139.021 70.01 139.17 69.905 139.33C69.7958 139.483 69.7076 139.652 69.632 139.825C69.5606 140.002 69.5019 140.183 69.4641 140.365C69.4263 140.554 69.4095 140.744 69.4095 140.929C69.4095 141.119 69.4263 141.308 69.4641 141.494C69.5019 141.679 69.5606 141.861 69.632 142.034C69.7076 142.207 69.7958 142.376 69.905 142.532C70.01 142.689 70.1317 142.837 70.2703 142.969C70.4047 143.101 70.5559 143.225 70.7154 143.328C70.875 143.431 71.0472 143.521 71.2235 143.596C71.3999 143.666 71.5847 143.723 71.7736 143.76C71.9626 143.798 72.1558 143.814 72.3489 143.814Z" fill="#BCBCBC"/>
<path d="M58.6509 143.814C59.4235 143.814 60.1836 143.505 60.7295 142.969C60.8639 142.837 60.9898 142.689 61.0948 142.532C61.1998 142.376 61.2922 142.207 61.3636 142.034C61.4392 141.861 61.4938 141.679 61.5315 141.494C61.5693 141.308 61.5903 141.119 61.5903 140.929C61.5903 140.744 61.5693 140.554 61.5315 140.365C61.4938 140.183 61.4392 140.002 61.3636 139.825C61.2922 139.652 61.1998 139.483 61.0948 139.33C60.9898 139.17 60.8639 139.021 60.7295 138.889C60.5951 138.758 60.444 138.638 60.2844 138.531C60.1248 138.428 59.9526 138.337 59.7763 138.267C59.5999 138.193 59.4151 138.139 59.2262 138.102C58.8482 138.028 58.4577 138.028 58.0756 138.102C57.8908 138.139 57.7061 138.193 57.5255 138.267C57.3491 138.337 57.177 138.428 57.0216 138.531C56.8578 138.638 56.7066 138.758 56.5723 138.889C56.4379 139.021 56.3161 139.17 56.2069 139.33C56.102 139.483 56.0096 139.652 55.9382 139.825C55.8626 140.002 55.808 140.183 55.7702 140.365C55.7324 140.554 55.7114 140.744 55.7114 140.929C55.7114 141.119 55.7324 141.308 55.7702 141.494C55.808 141.679 55.8626 141.861 55.9382 142.034C56.0096 142.207 56.102 142.376 56.2069 142.532C56.3161 142.689 56.4379 142.837 56.5723 142.969C57.1182 143.505 57.8782 143.814 58.6509 143.814Z" fill="#BCBCBC"/>
<path d="M44.9575 143.814C45.1465 143.814 45.3396 143.798 45.5286 143.76C45.7176 143.723 45.9023 143.666 46.0787 143.596C46.2593 143.521 46.4272 143.431 46.5868 143.328C46.7506 143.225 46.8976 143.101 47.0361 142.969C47.1705 142.837 47.2923 142.689 47.4015 142.532C47.5064 142.376 47.5988 142.207 47.6702 142.034C47.7416 141.861 47.8004 141.679 47.8382 141.494C47.876 141.308 47.897 141.119 47.897 140.929C47.897 140.744 47.876 140.554 47.8382 140.365C47.8004 140.183 47.7416 140.002 47.6702 139.825C47.5946 139.652 47.5064 139.483 47.4015 139.33C47.2923 139.17 47.1705 139.021 47.0361 138.889C46.8976 138.758 46.7506 138.638 46.5868 138.531C46.4272 138.428 46.2593 138.337 46.0787 138.267C45.9023 138.193 45.7176 138.139 45.5286 138.102C45.1507 138.028 44.7602 138.028 44.3822 138.102C44.1933 138.139 44.0085 138.193 43.8321 138.267C43.6558 138.337 43.4836 138.428 43.324 138.531C43.1644 138.638 43.0133 138.758 42.8789 138.889C42.7403 139.021 42.6186 139.17 42.5136 139.33C42.4044 139.483 42.3162 139.652 42.2406 139.825C42.1692 140.002 42.1105 140.183 42.0727 140.365C42.0349 140.554 42.0181 140.744 42.0181 140.929C42.0181 141.119 42.0349 141.308 42.0727 141.494C42.1105 141.679 42.1692 141.861 42.2406 142.034C42.3162 142.207 42.4044 142.376 42.5136 142.532C42.6186 142.689 42.7403 142.837 42.8789 142.969C43.0133 143.101 43.1644 143.225 43.324 143.328C43.4836 143.431 43.6558 143.521 43.8321 143.596C44.0085 143.666 44.1933 143.723 44.3822 143.76C44.5712 143.798 44.7644 143.814 44.9575 143.814Z" fill="#BCBCBC"/>
<path d="M31.2593 143.814C31.4524 143.814 31.6456 143.798 31.8346 143.761C32.0235 143.724 32.2083 143.666 32.3847 143.596C32.561 143.522 32.7332 143.431 32.8928 143.328C33.0523 143.225 33.2035 143.101 33.3379 142.969C33.4723 142.838 33.5982 142.689 33.7032 142.533C33.8082 142.376 33.9006 142.207 33.9762 142.034C34.0476 141.861 34.1021 141.68 34.1399 141.494C34.1819 141.309 34.1987 141.119 34.1987 140.929C34.1987 140.744 34.1819 140.554 34.1399 140.365C34.1021 140.184 34.0476 140.002 33.9762 139.825C33.9006 139.652 33.8082 139.483 33.7032 139.33C33.5982 139.17 33.4723 139.021 33.3379 138.89C33.2035 138.758 33.0523 138.638 32.8928 138.531C32.7332 138.428 32.561 138.337 32.3847 138.267C32.2083 138.193 32.0235 138.14 31.8346 138.102C30.8771 137.913 29.8651 138.222 29.1807 138.89C28.6348 139.429 28.3198 140.171 28.3198 140.929C28.3198 141.119 28.3408 141.309 28.3786 141.494C28.4164 141.68 28.471 141.861 28.5466 142.034C28.618 142.207 28.7103 142.376 28.8153 142.533C28.9245 142.689 29.0463 142.838 29.1807 142.969C29.3192 143.101 29.4662 143.225 29.63 143.328C29.7895 143.431 29.9575 143.522 30.1339 143.596C30.3144 143.666 30.4992 143.724 30.684 143.761C30.8729 143.798 31.0661 143.814 31.2593 143.814Z" fill="#BCBCBC"/>
<path d="M17.5659 143.814C18.3386 143.814 19.0944 143.505 19.6445 142.969C19.7789 142.838 19.9007 142.689 20.0099 142.533C20.1148 142.376 20.2072 142.207 20.2786 142.034C20.3542 141.861 20.4088 141.68 20.4466 141.494C20.4844 141.309 20.5054 141.119 20.5054 140.929C20.5054 140.744 20.4844 140.554 20.4466 140.365C20.4088 140.184 20.3542 140.002 20.2786 139.825C20.2072 139.652 20.1148 139.483 20.0099 139.33C19.9007 139.17 19.7789 139.021 19.6445 138.89C18.9601 138.222 17.9438 137.913 16.9906 138.102C16.8017 138.14 16.6169 138.193 16.4405 138.267C16.2642 138.337 16.092 138.428 15.9324 138.531C15.7729 138.638 15.6217 138.758 15.4873 138.89C15.3487 139.021 15.227 139.17 15.122 139.33C15.0128 139.483 14.9246 139.652 14.849 139.825C14.7776 140.002 14.7188 140.184 14.6811 140.365C14.6433 140.554 14.6265 140.744 14.6265 140.929C14.6265 141.119 14.6433 141.309 14.6811 141.494C14.7188 141.68 14.7776 141.861 14.849 142.034C14.9246 142.207 15.0128 142.376 15.122 142.533C15.227 142.689 15.3487 142.838 15.4873 142.969C15.6217 143.101 15.7729 143.225 15.9324 143.328C16.092 143.431 16.2642 143.522 16.4405 143.596C16.6169 143.666 16.8017 143.724 16.9906 143.761C17.1796 143.798 17.3728 143.814 17.5659 143.814Z" fill="#BCBCBC"/>
<path d="M183.876 25.5388C184.069 25.5388 184.262 25.5182 184.451 25.4811C184.64 25.444 184.825 25.3904 185.001 25.3162C185.178 25.2462 185.35 25.1555 185.509 25.0525C185.669 24.9453 185.82 24.8258 185.955 24.6939C186.5 24.1582 186.815 23.4123 186.815 22.654C186.815 22.4644 186.794 22.2749 186.757 22.0894C186.719 21.9081 186.664 21.7226 186.589 21.5495C186.517 21.3765 186.425 21.2075 186.32 21.0509C186.215 20.8943 186.089 20.7459 185.955 20.6141C185.82 20.4822 185.669 20.3585 185.509 20.2555C185.35 20.1525 185.178 20.0618 185.001 19.9918C184.825 19.9176 184.64 19.864 184.451 19.8269C183.494 19.6374 182.482 19.9423 181.797 20.6141C181.251 21.1498 180.937 21.8957 180.937 22.654C180.937 23.4123 181.251 24.1582 181.797 24.6939C182.343 25.2297 183.103 25.5388 183.876 25.5388Z" fill="#BCBCBC"/>
<path d="M183.876 43.6427C184.069 43.6427 184.262 43.6262 184.451 43.5891C184.64 43.552 184.825 43.4944 185.001 43.4243C185.178 43.3501 185.35 43.2594 185.509 43.1564C185.669 43.0534 185.82 42.9298 185.955 42.7979C186.5 42.2621 186.815 41.5162 186.815 40.7579C186.815 39.9997 186.5 39.2579 185.955 38.718C185.82 38.5861 185.669 38.4666 185.509 38.3595C185.35 38.2564 185.178 38.1658 185.001 38.0957C184.825 38.0215 184.64 37.968 184.451 37.9309C184.073 37.8567 183.683 37.8567 183.301 37.9309C183.116 37.968 182.931 38.0215 182.751 38.0957C182.574 38.1658 182.406 38.2564 182.247 38.3595C182.083 38.4666 181.932 38.5861 181.797 38.718C181.251 39.2579 180.937 39.9997 180.937 40.7579C180.937 41.5162 181.251 42.2621 181.797 42.7979C181.932 42.9298 182.083 43.0534 182.247 43.1564C182.406 43.2594 182.574 43.3501 182.751 43.4243C182.931 43.4944 183.116 43.552 183.301 43.5891C183.49 43.6262 183.683 43.6427 183.876 43.6427Z" fill="#BCBCBC"/>
<path d="M183.876 61.7507C184.069 61.7507 184.262 61.7301 184.451 61.693C184.64 61.656 184.825 61.5983 185.001 61.5282C185.178 61.454 185.35 61.3675 185.509 61.2644C185.669 61.1573 185.82 61.0378 185.955 60.9059C186.5 60.3661 186.815 59.6243 186.815 58.866C186.815 58.1036 186.5 57.3618 185.955 56.826C185.409 56.2862 184.649 55.9812 183.876 55.9812C183.103 55.9812 182.347 56.2862 181.797 56.826C181.663 56.9579 181.541 57.1063 181.432 57.2629C181.327 57.4195 181.235 57.5884 181.163 57.7615C181.088 57.9346 181.033 58.1159 180.995 58.3014C180.958 58.4868 180.937 58.6764 180.937 58.866C180.937 59.0514 180.958 59.241 180.995 59.4264C181.033 59.6119 181.088 59.7932 181.163 59.9663C181.235 60.1435 181.327 60.3084 181.432 60.465C181.541 60.6257 181.663 60.7699 181.797 60.9059C181.932 61.0378 182.083 61.1573 182.247 61.2644C182.406 61.3675 182.574 61.454 182.751 61.5282C182.931 61.5983 183.116 61.656 183.301 61.693C183.494 61.7301 183.687 61.7507 183.876 61.7507Z" fill="#BCBCBC"/>
</svg>
