<svg width="319" height="193" viewBox="0 0 319 193" fill="none" xmlns="http://www.w3.org/2000/svg">
<path d="M164.604 64.5998C163.222 64.6423 161.893 65.2165 160.914 66.2161L132.863 94.1817L115.584 76.9557C110.746 71.9155 102.931 79.6991 107.981 84.5267L129.067 105.559C131.162 107.654 134.565 107.654 136.67 105.559L168.517 73.7976C172.026 70.395 169.442 64.5998 164.615 64.5998H164.604ZM5.31667 107.133H37.2167C40.1621 107.133 42.5333 109.504 42.5333 112.45C42.5333 115.395 40.1621 117.766 37.2167 117.766H5.31667C2.37123 117.766 0 115.395 0 112.45C0 109.504 2.37123 107.133 5.31667 107.133ZM5.31667 64.5998H37.2167C40.1621 64.5998 42.5333 66.971 42.5333 69.9165C42.5333 72.8619 40.1621 75.2331 37.2167 75.2331H5.31667C2.37123 75.2331 0 72.8619 0 69.9165C0 66.971 2.37123 64.5998 5.31667 64.5998ZM5.31667 22.0665H37.2167C40.1621 22.0665 42.5333 24.4377 42.5333 27.3831C42.5333 30.3286 40.1621 32.6998 37.2167 32.6998H5.31667C2.37123 32.6998 0 30.3286 0 27.3831C0 24.4377 2.37123 22.0665 5.31667 22.0665ZM260.517 139.033C245.896 139.033 233.933 150.996 233.933 165.616C233.933 180.237 245.896 192.2 260.517 192.2C275.137 192.2 287.1 180.237 287.1 165.616C287.1 150.996 275.137 139.033 260.517 139.033ZM260.517 149.666C269.385 149.666 276.467 156.748 276.467 165.616C276.467 174.485 269.385 181.566 260.517 181.566C251.648 181.566 244.567 174.485 244.567 165.616C244.567 156.748 251.648 149.666 260.517 149.666ZM122.283 139.033C107.662 139.033 95.7 150.996 95.7 165.616C95.7 180.237 107.662 192.2 122.283 192.2C136.904 192.2 148.867 180.237 148.867 165.616C148.867 150.996 136.904 139.033 122.283 139.033ZM122.283 149.666C131.152 149.666 138.233 156.748 138.233 165.616C138.233 174.485 131.152 181.566 122.283 181.566C113.415 181.566 106.333 174.485 106.333 165.616C106.333 156.748 113.415 149.666 122.283 149.666ZM69.1167 0.799805C60.3761 0.799805 53.1667 8.0092 53.1667 16.7498V133.716C53.1667 142.457 60.3761 149.666 69.1167 149.666H90.3833C97.5715 149.773 97.5715 138.927 90.3833 139.033H69.1167C66.0755 139.033 63.8 136.758 63.8 133.716V16.7498C63.8 13.7087 66.0755 11.4331 69.1167 11.4331H207.35C210.391 11.4331 212.667 13.7087 212.667 16.7498V139.033H154.183C147.165 139.033 147.293 149.773 154.183 149.666H228.617C235.635 149.666 235.571 139.033 228.617 139.033H223.3V43.3331H268.247L308.367 106.027V133.716C308.367 136.758 306.091 139.033 303.05 139.033H292.417C285.462 139.033 285.462 149.666 292.417 149.666H303.05C311.791 149.666 319 142.457 319 133.716V104.475C319 103.465 318.713 102.454 318.171 101.604L275.637 35.1455C274.659 33.6249 272.979 32.6998 271.15 32.6998H223.3V16.7498C223.3 8.0092 216.091 0.799805 207.35 0.799805H69.1167Z" fill="#BCBCBC"/>
</svg>
