<svg width="1573" height="136" viewBox="0 0 1573 136" fill="none" xmlns="http://www.w3.org/2000/svg">
<path d="M18.4422 1.85327L14.4172 33.6859L44.9871 33.7844L35.3271 102.667H6.00489L2 134.046H127.882L131.988 102.391L101.478 102.627L110.414 33.5284L141.064 33.1938L145.351 1.85327H18.4422Z" stroke="#87633D" stroke-width="3" stroke-miterlimit="10"/>
<path d="M1126.77 1.85303L1122.75 33.6856L1153.32 33.7841L1143.68 102.666H1114.35L1110.33 134.046H1236.23L1240.34 102.39L1207.45 102.627L1209.77 84.7516L1251.38 85.0469L1255.87 53.8837L1213.75 53.864L1216.37 33.5281H1292.48L1289.32 61.0101L1332.35 61.1085L1340.44 1.85303H1126.77Z" stroke="#87633D" stroke-width="3" stroke-miterlimit="10"/>
<path d="M403.294 1.85303L399.269 33.6856L429.839 33.7841L420.199 102.666H390.877L386.852 134.046L489.369 133.711L493.434 102.627H483.975L485.082 94.0041L501.263 84.0429L513.68 102.725L501.202 102.627L497.338 133.632L619.799 133.455L624.509 102.627H594.019L564.938 53.9821L596.414 33.5281H631.432L636.322 1.85303H526.882L521.69 33.5281H551.616L488 71.4635L492.891 33.5281H513.72L518.047 1.85303H403.294Z" stroke="#87633D" stroke-width="3" stroke-miterlimit="10"/>
<path d="M151.006 1.85303L146.981 33.6856L177.551 33.7841L167.891 102.666H138.589L134.564 134.046H229.273L233.398 102.39L200.997 102.627L207.88 48.6078L270.388 133.554H352.176L364.895 33.6463L394.439 33.5281L397.78 1.85303H304.782L301.622 33.5478L326.859 33.5281L324.162 81.5231L267.309 1.85303H151.006Z" stroke="#87633D" stroke-width="3" stroke-miterlimit="10"/>
<path d="M866.09 83.3144C866.09 83.3144 864.56 104.536 850.674 102.627C843.328 101.623 859.066 79.4166 831.998 68.8647C860.938 65.518 898.29 0.848634 798.248 1.85263C796.88 1.87232 643.285 1.85263 643.285 1.85263L639.26 33.6853L669.83 33.7641L660.17 102.646H630.848L626.903 133.534H752.786L756.63 102.666L724.268 102.627C724.268 102.627 726.12 82.7238 726.663 82.6845C811.008 77.0739 757.555 120.64 793.68 133.534C795.612 134.223 845.502 133.534 845.502 133.534C880.902 134.794 882.371 83.2751 882.371 83.2751L866.09 83.3144ZM769.328 54.9662C758.964 55.0449 731.01 55.1237 731.01 55.1237L734.049 33.5082C734.049 33.5082 762.486 33.5082 773.092 33.5082C799.295 33.5278 794.183 54.8087 769.328 54.9662Z" stroke="#87633D" stroke-width="3" stroke-miterlimit="10"/>
<path d="M1076.42 102.626L1036.35 1.83276L974.866 1.85245L911.472 102.626H884.243L878.246 133.534H968.849L973.477 102.607L947.778 102.626L957.377 87.8815L997.809 87.7043L1004.49 102.528H981.87L977.764 133.357L1102.28 133.534L1106.56 102.626H1076.42V102.626ZM966.293 70.3804L981.527 48.4302L991.469 70.3804H966.293Z" stroke="#87633D" stroke-width="3" stroke-miterlimit="10"/>
<path d="M1347.99 1.85303L1340.44 61.0101H1383.43L1387.55 33.5281H1421.46L1412.47 102.627H1381.25L1377.39 133.554L1507.52 134.046L1509.93 102.627H1476.95L1486.47 33.5281H1523.19L1520.11 59.9077L1563.02 61.0101L1570.47 1.85303H1347.99Z" stroke="#87633D" stroke-width="3" stroke-miterlimit="10"/>
</svg>
