<svg width="144" height="90" viewBox="0 0 144 90" fill="none" xmlns="http://www.w3.org/2000/svg">
<path d="M8.31628 66.1953L7.98222 68.9035L10.5194 68.9119L9.71765 74.7722H7.28405L6.95166 77.4419H17.3993L17.74 74.7488L15.2079 74.7706L15.9495 68.8902L18.4933 68.8617L18.8491 66.1953H8.31628Z" fill="#B5B5B5"/>
<path d="M100.302 66.1953L99.9681 68.9035L102.505 68.9119L101.703 74.7722H99.2716L98.9375 77.4419H109.385L109.728 74.7488L106.998 74.7706L107.189 73.2481L110.645 73.2732L111.017 70.6219L107.521 70.6203L107.738 68.8902H114.055L113.793 71.2282L117.364 71.2366L118.036 66.1953H100.302Z" fill="#B5B5B5"/>
<path d="M40.2572 66.1953L39.9231 68.9035L42.4603 68.9119L41.6586 74.7722H39.2266L38.8926 77.4419L47.401 77.4135L47.7384 74.7706H46.9534L47.0452 74.0353L48.3881 73.1878L49.4187 74.7773L48.3831 74.7706L48.0608 77.4068L58.2261 77.3934L58.6169 74.7706H56.0865L53.6729 70.6303L56.2852 68.8902H59.1915L59.5974 66.1953H50.5144L50.0835 68.8902H52.5672L47.2874 72.1176L47.6933 68.8902H49.422L49.7811 66.1953H40.2572Z" fill="#B5B5B5"/>
<path d="M19.3187 66.1953L18.9847 68.9035L21.5218 68.9119L20.7201 74.7722H18.2865L17.9541 77.4419H25.8144L26.1569 74.7488L23.4677 74.7706L24.0373 70.1731L29.2268 77.4001H36.0149L37.0705 68.9002L39.5225 68.8902L39.7997 66.1953H32.0797L31.8191 68.8918L33.9136 68.8902L33.6898 72.9734L28.9713 66.1953H19.3187Z" fill="#B5B5B5"/>
<path d="M78.667 73.1258C78.667 73.1258 78.5401 74.9313 77.3876 74.7688C76.7779 74.6834 78.0841 72.7942 75.8376 71.8965C78.2394 71.6117 81.3395 66.1098 73.0365 66.1953C72.9229 66.1969 60.1753 66.1953 60.1753 66.1953L59.8413 68.9035L62.3784 68.9102L61.5767 74.7705H59.1448L58.8174 77.3984H69.265L69.584 74.7722L66.8965 74.7688C66.8965 74.7688 67.0502 73.0756 67.0953 73.0722C74.0955 72.5949 69.6592 76.3013 72.6573 77.3984C72.8177 77.457 76.9583 77.3984 76.9583 77.3984C79.8963 77.5056 80.0183 73.1225 80.0183 73.1225L78.667 73.1258ZM70.6346 70.714C69.7744 70.7207 67.4544 70.7274 67.4544 70.7274L67.7066 68.8884C67.7066 68.8884 70.0667 68.8884 70.947 68.8884C73.1233 68.8901 72.6974 70.7006 70.6346 70.714Z" fill="#B5B5B5"/>
<path d="M96.1231 74.7706L92.7975 66.1953L87.6948 66.197L82.4351 74.7706H80.1735L79.6758 77.4001H87.1954L87.5796 74.7689L85.4466 74.7706L86.2433 73.5161L89.5989 73.501L90.1535 74.7622H88.2777L87.937 77.385L98.271 77.4001L98.6268 74.7706H96.1231ZM86.9833 72.0255L88.2477 70.158L89.0728 72.0255H86.9833Z" fill="#B5B5B5"/>
<path d="M118.662 66.1953L118.036 71.2282H121.603L121.946 68.8902H124.76L124.014 74.7706H121.423L121.102 77.4001L131.902 77.4419L132.101 74.7706H129.365L130.154 68.8902H133.203L132.948 71.1345L136.509 71.2282L137.127 66.1953H118.662Z" fill="#B5B5B5"/>
<path d="M138.725 62.9846H4.98926V65.0379H138.725V62.9846Z" fill="#B5B5B5"/>
<path d="M138.736 79H5V81.0534H138.736V79Z" fill="#B5B5B5"/>
<path d="M41.3028 20.4399C41.266 20.3847 47.1955 29.8041 54.0604 35.3361C60.7582 40.7308 65.8309 44.2313 71.4313 47.1103C79.6374 51.3293 91.2476 56.5096 93.8632 57.4308C93.8632 57.4308 85.8141 58.8913 76.038 58.4575C66.1014 58.0153 57.2456 56.662 46.5274 49.3061C37.2757 42.9584 36.2067 37.9606 36.3771 32.0015C36.5492 25.9921 41.3813 20.4433 41.3028 20.4399Z" fill="#643B3B"/>
<path d="M92.6121 34.3664C92.5737 34.3764 96.1264 40.3105 96.2517 46.4605C96.3786 52.6742 94.6599 57.059 94.6599 57.059C94.6599 57.059 100.073 54.3089 101.348 50.3747C102.627 46.4253 101.844 43.007 98.241 39.3273C94.7184 35.7297 92.6121 34.3664 92.6121 34.3664Z" fill="#643B3B"/>
<path d="M20.5977 9.62207C20.5509 9.60197 57.4224 21.0463 66.5689 25.7442C72.5986 28.841 79.6789 35.7381 78.1255 42.4643C76.7526 48.4067 76.3467 47.5492 75.8439 47.2963C75.1825 46.9646 71.7083 40.364 70.6844 38.9153C63.7595 29.1174 43.2317 19.9459 39.6172 18.1756C35.9092 16.3583 20.6511 9.50818 20.5977 9.62207Z" fill="#BDB954"/>
<path d="M64.75 21.3946C64.9254 20.9608 83.8046 28.4206 87.9201 31.5442C90.4055 33.4284 94.5111 36.0328 93.3786 40.6387C92.3798 44.7019 87.6579 49.3513 86.4987 49.9894C84.3357 51.1802 86.1663 47.6798 86.4987 45C86.7827 42.7021 86.6591 41.2299 85.7872 37.9304C84.1236 31.6162 65.3229 21.2171 64.75 21.3946Z" fill="#BDB954"/>
</svg>
