<svg width="201" height="201" viewBox="0 0 201 201" fill="none" xmlns="http://www.w3.org/2000/svg">
<path d="M100.5 33.5V25.125H83.75V33.5H58.625V25.125H41.875V33.5H16.75V50.25H25.125V75.375H16.75V92.125H25.125V117.25H16.75V134H25.125V159.125H16.75V175.875H125.625V159.125H117.25V134H125.625V117.25H117.25V92.125H125.625V75.375H117.25V50.25H125.625V33.5H100.5ZM100.5 134H41.875V117.25H100.5V134ZM100.5 92.125H41.875V75.375H100.5V92.125Z" fill="#BCBCBC"/>
<path d="M165.992 70.6011L159.125 60.6349L152.258 70.6011C146.73 78.5574 134 98.1549 134 108.875C134 115.538 136.647 121.929 141.359 126.641C146.071 131.353 152.461 134 159.125 134C165.789 134 172.179 131.353 176.891 126.641C181.603 121.929 184.25 115.538 184.25 108.875C184.25 98.1549 171.52 78.5574 165.992 70.6011Z" fill="#BCBCBC"/>
</svg>
