<svg width="179" height="190" viewBox="0 0 179 190" fill="none" xmlns="http://www.w3.org/2000/svg">
<path d="M154.708 177.386C154.708 170.89 166.579 156.204 166.579 156.204C166.579 156.204 178.45 170.89 178.45 177.386C178.45 183.88 173.135 189.145 166.579 189.145C160.023 189.145 154.708 183.88 154.708 177.386Z" fill="#BCBCBC"/>
<path d="M154.334 75.0901V74.6551H117.633V74.8161C115.361 70.6031 112.276 66.8871 108.597 63.8571C107.347 64.6331 105.88 65.1021 104.296 65.1021H63.3989C62.3929 65.1021 61.4399 64.8971 60.5519 64.5661C57.1209 67.5661 54.2419 71.1701 52.1169 75.2321H0.0678711V108.89H52.1169C58.2759 120.665 70.6659 128.726 84.9759 128.726C99.5169 128.726 112.065 120.399 118.116 108.313H144.076V137.16H177.423V102.268C177.423 88.6371 167.443 77.3411 154.334 75.0901Z" fill="#BCBCBC"/>
<path d="M110.769 65.102H57.8879C56.7089 65.102 55.7529 64.146 55.7529 62.967V51.137C55.7529 49.957 56.7089 49.001 57.8879 49.001H110.769C111.948 49.001 112.903 49.957 112.903 51.137V62.967C112.903 64.146 111.948 65.102 110.769 65.102Z" fill="#BCBCBC"/>
<path d="M103.085 49.2141H65.5708V41.1641H103.085V49.2141Z" fill="#BCBCBC"/>
<path d="M93.844 41.164H74.814V20.964H93.844V41.164Z" fill="#BCBCBC"/>
<path d="M135.068 0C127.908 0 112.917 3.432 99.626 6.892C102.023 8.861 103.461 11.298 103.461 13.946C103.461 16.595 102.023 19.032 99.626 21.002C112.917 24.46 127.908 27.893 135.068 27.893C149.501 27.893 161.201 21.649 161.201 13.946C161.201 6.243 149.501 0 135.068 0Z" fill="#BCBCBC"/>
<path d="M34.1638 0C41.3238 0 56.3148 3.432 69.6068 6.892C67.2098 8.861 65.7718 11.298 65.7718 13.946C65.7718 16.595 67.2098 19.032 69.6068 21.002C56.3148 24.46 41.3238 27.893 34.1638 27.893C19.7308 27.893 8.02979 21.649 8.02979 13.946C8.02979 6.243 19.7308 0 34.1638 0Z" fill="#BCBCBC"/>
<path d="M103.461 13.946C103.461 20.459 94.8767 25.74 84.2877 25.74C73.6987 25.74 65.1157 20.459 65.1157 13.946C65.1157 7.43295 73.6987 2.15295 84.2877 2.15295C94.8767 2.15295 103.461 7.43295 103.461 13.946Z" fill="#BCBCBC"/>
</svg>
