<svg width="89" height="124" viewBox="0 0 89 124" fill="none" xmlns="http://www.w3.org/2000/svg">
<path d="M27 116C28.6569 116 30 114.657 30 113C30 111.343 28.6569 110 27 110C25.3431 110 24 111.343 24 113C24 114.657 25.3431 116 27 116Z" fill="#BCBCBC"/>
<path d="M54 26.9999C54 17.3999 48.8 8.3999 40.5 3.5999L40 3.3999H36.5V26.0999C30.9 30.3999 23.1 30.3999 17.5 26.0999V3.3999H14L13.5 3.6999C5.2 8.3999 0 17.3999 0 26.9999C0 27.3999 0 27.8999 0 28.2999C0 28.4999 0 28.5999 0 28.7999C0 29.0999 3.7998e-07 29.2999 0.1 29.5999C0.1 29.7999 0.100001 29.9999 0.200001 30.1999C0.200001 30.3999 0.299999 30.6999 0.299999 30.8999C0.299999 31.0999 0.4 31.2999 0.4 31.5999C0.4 31.7999 0.5 31.9999 0.5 32.1999C0.5 32.3999 0.600001 32.6999 0.700001 32.8999C0.700001 33.0999 0.799999 33.2999 0.799999 33.4999C0.899999 33.6999 0.9 33.9999 1 34.1999C1 34.3999 1.1 34.4999 1.1 34.6999C1.2 34.9999 1.3 35.1999 1.3 35.4999C1.4 35.5999 1.4 35.7999 1.5 35.8999C1.6 36.1999 1.7 36.4999 1.8 36.6999C1.8 36.7999 1.9 36.8999 1.9 36.9999C2 37.2999 2.2 37.5999 2.3 37.8999C2.3 37.9999 2.4 37.9999 2.4 38.0999C2.6 38.4999 2.7 38.7999 2.9 39.1999C4.3 41.8999 6.1 44.2999 8.3 46.3999L9.5 47.6999C13.3 51.5999 15.9 61.7999 15.9 68.4999V113C15.9 119.1 20.8 124 26.9 124C33 124 37.9 119.1 37.9 113V68.5999C37.9 61.8999 40.5 51.6999 44.3 47.7999L45.5 46.4999C47.7 44.3999 49.5 41.9999 50.9 39.2999C51.1 38.9999 51.3 38.5999 51.4 38.1999C51.4 38.0999 51.5 38.0999 51.5 37.9999C51.6 37.6999 51.8 37.3999 51.9 37.0999C51.9 36.9999 52 36.8999 52 36.7999C52.1 36.4999 52.2 36.2999 52.3 35.9999C52.4 35.8999 52.4 35.6999 52.5 35.5999C52.6 35.2999 52.7 35.0999 52.7 34.7999C52.8 34.5999 52.8 34.4999 52.8 34.2999C52.9 34.0999 52.9 33.7999 53 33.5999C53 33.3999 53.1 33.1999 53.1 32.9999C53.2 32.7999 53.2 32.4999 53.3 32.2999C53.3 32.0999 53.4 31.8999 53.4 31.6999C53.4 31.4999 53.5 31.2999 53.5 30.9999C53.5 30.7999 53.6 30.4999 53.6 30.2999C53.6 30.0999 53.7 29.8999 53.7 29.6999C53.7 29.3999 53.7 29.1999 53.8 28.8999C53.8 28.6999 53.8 28.5999 53.8 28.3999C54 27.8999 54 27.3999 54 26.9999ZM13.5 8.3999V27.8999L14.2 28.4999C17.9 31.6999 22.4 33.2999 27 33.2999C31.6 33.2999 36.1 31.6999 39.8 28.5999L40.5 27.9999V8.3999C46.4 12.6999 50 19.5999 50 26.9999C50 27.6999 50 28.3999 49.9 29.0999V29.1999C49.8 29.8999 49.7 30.5999 49.6 31.1999C49.6 31.2999 49.6 31.2999 49.6 31.3999C49.5 32.0999 49.3 32.6999 49.1 33.3999V33.4999C48.9 34.1999 48.7 34.7999 48.4 35.4999C48.4 35.4999 48.4 35.4999 48.4 35.5999C47.3 38.2999 45.7 40.6999 43.7 42.8999L42.8 43.7999C38.6 47.5999 33.1 49.9999 27 49.9999C20.9 49.9999 15.4 47.5999 11.3 43.6999L10.4 42.7999C8.4 40.6999 6.8 38.1999 5.7 35.4999C5.7 35.4999 5.7 35.4999 5.7 35.3999C5.4 34.7999 5.2 34.0999 5 33.3999V33.2999C4.8 32.6999 4.7 31.9999 4.5 31.2999C4.5 31.1999 4.5 31.1999 4.5 31.0999C4.4 30.3999 4.3 29.7999 4.2 29.0999V28.9999C4 28.3999 4 27.6999 4 26.9999C4 19.5999 7.6 12.6999 13.5 8.3999ZM34 68.5999V113C34 116.9 30.9 120 27 120C23.1 120 20 116.9 20 113V68.5999C20 64.2999 18.9 57.4999 16.6 51.8999C19.8 53.2999 23.3 53.9999 27 53.9999C30.7 53.9999 34.2 53.2999 37.4 51.8999C35.1 57.4999 34 64.3999 34 68.5999Z" fill="#BCBCBC"/>
<path d="M87.9 68.8L89 68.2V60H79V13.5C79.6 13.2 80.1 12.9 80.5 12.4C81.4 11.4 81.8 10.1 81.7 8.8L80.8 0H73.2L72.3 8.8C72.2 10.1 72.6 11.4 73.5 12.4C73.9 12.9 74.4 13.2 75 13.5V60H65V68.2L66.1 68.8C67.3 69.4 68.1 70.6 68.1 72C68.1 73.4 67.4 74.6 66.1 75.2L65 75.8V112C65 118.6 70.4 124 77 124C83.6 124 89 118.6 89 112V75.8L87.9 75.2C86.7 74.6 85.9 73.4 85.9 72C85.9 70.6 86.7 69.4 87.9 68.8ZM76.8 4H77.2L77.7 9.2C77.7 9.5 77.6 9.7 77.5 9.8C77.4 9.9 77.3 10 77 10C76.7 10 76.5 9.9 76.5 9.8C76.5 9.7 76.3 9.5 76.3 9.2L76.8 4ZM69 65.9V64H85V65.9C83.1 67.3 81.9 69.6 81.9 72C81.9 74.5 83.1 76.7 85 78.1V110H69V78.1C70.9 76.7 72.1 74.4 72.1 72C72.1 69.5 70.9 67.3 69 65.9ZM77 120C73.3 120 70.2 117.4 69.3 114H84.8C83.8 117.4 80.7 120 77 120Z" fill="#BCBCBC"/>
</svg>
