<svg width="142" height="87" viewBox="0 0 142 87" fill="none" xmlns="http://www.w3.org/2000/svg">
<path d="M93.9546 77.3448L93.9546 10.1919L0.223709 10.1919L0.223706 77.3448L93.9546 77.3448Z" fill="#616161"/>
<path d="M87.7319 20.6024L87.7319 14.8882L0.32399 14.8882L0.32399 20.6024L87.7319 20.6024Z" fill="#BCBCBC"/>
<path d="M87.7319 37.0255L87.7319 26.8257L0.32399 26.8257L0.323989 37.0255L87.7319 37.0255Z" fill="#BCBCBC"/>
<path opacity="0.62" d="M87.7319 43.4884L87.7319 40.0352L0.32399 40.0352L0.32399 43.4884L87.7319 43.4884Z" fill="#BCBCBC"/>
<path opacity="0.62" d="M87.7319 75.1857L87.7319 71.7324L0.32399 71.7324L0.32399 75.1856L87.7319 75.1857Z" fill="#BCBCBC"/>
<path d="M142 86.0685L142 0.660645L93.064 0.660642L93.064 86.0685L142 86.0685Z" fill="#616161"/>
<path d="M138.75 13.9067L138.75 6.63672L93.1308 6.63672L93.1308 13.9067L138.75 13.9067Z" fill="#BCBCBC"/>
<path d="M138.75 34.7933L138.75 21.8164L93.1308 21.8164L93.1308 34.7933L138.75 34.7933Z" fill="#BCBCBC"/>
<path opacity="0.62" d="M138.75 43.0088L138.75 38.6177L93.1308 38.6177L93.1308 43.0087L138.75 43.0088Z" fill="#BCBCBC"/>
<path opacity="0.62" d="M138.75 84.1933L138.75 79.8022L93.1308 79.8022L93.1308 84.1933L138.75 84.1933Z" fill="#BCBCBC"/>
<path d="M93.1421 9.99561L87.5984 10.0974L87.4425 77.2866L93.1421 77.3884L93.1421 9.99561Z" fill="#404040"/>
</svg>
