<svg width="195" height="191" viewBox="0 0 195 191" fill="none" xmlns="http://www.w3.org/2000/svg">
<path d="M97.5 0.0727539H74.7305V18.5056C68.9203 20.1952 63.4242 22.3457 58.0852 25.2643L44.7375 12.2077L12.5461 43.6971L25.8937 56.7537C22.9102 61.9763 20.7117 67.3525 18.9844 73.036H0.140625V117.582H18.9844C20.7117 123.265 22.9102 128.642 25.8937 133.864L12.5461 146.921L44.7375 178.41L58.0852 165.354C63.4242 168.272 68.9203 170.423 74.7305 172.112V190.545H97.5C151.205 190.545 194.859 147.842 194.859 95.309C194.859 42.7754 151.205 0.0727539 97.5 0.0727539ZM97.5 184.401H81.0117V167.351L78.6562 166.736C71.9039 165.046 65.3086 162.435 59.1844 158.902L57.143 157.673L44.7375 169.808L21.4969 146.921L33.9023 134.786L32.6461 132.789C29.0344 126.798 26.3648 120.347 24.6375 113.742L24.0094 111.438H6.42188V79.1802H23.8523L24.4805 76.8761C26.2078 70.2711 28.8773 63.8196 32.4891 57.8289L33.7453 55.832L21.3398 43.6971L44.5805 20.9633L56.9859 33.0982L59.0273 31.8694C65.1516 28.3364 71.7469 25.7251 78.4992 24.0354L80.8547 23.421V6.21703H97.5C147.75 6.21703 188.578 46.1548 188.578 95.309C188.578 144.463 147.75 184.401 97.5 184.401Z" fill="#BCBCBC"/>
<path d="M140.841 48.6121L97.5 91.0075L88.5492 82.2519L84.1523 86.5529L93.1031 95.3085L84.1523 104.064L88.5492 108.365L97.5 99.6095L124.195 125.723L128.592 121.422L101.897 95.3085L145.238 52.9131L140.841 48.6121Z" fill="#BCBCBC"/>
<path d="M97.5 138.318C73.3172 138.318 53.5312 118.964 53.5312 95.3085C53.5312 71.653 73.3172 52.2986 97.5 52.2986V46.1543C69.8625 46.1543 47.25 68.2737 47.25 95.3085C47.25 122.343 69.8625 144.463 97.5 144.463V138.318Z" fill="#BCBCBC"/>
<path d="M100.641 31.2544H94.3594V36.3243H100.641V31.2544Z" fill="#BCBCBC"/>
<path d="M162.825 92.2363H157.643V98.3806H162.825V92.2363Z" fill="#BCBCBC"/>
<path d="M100.641 154.14H94.3594V159.21H100.641V154.14Z" fill="#BCBCBC"/>
</svg>
