<svg width="195" height="195" viewBox="0 0 195 195" fill="none" xmlns="http://www.w3.org/2000/svg">
<path d="M169.106 58.0852L182.454 44.7375L150.262 12.5461L136.915 25.8937C131.576 22.9102 126.08 20.7117 120.27 18.9844V0.140625H74.7305V18.9844C68.9203 20.7117 63.4242 22.9102 58.0852 25.8937L44.7375 12.5461L12.5461 44.7375L25.8937 58.0852C22.9102 63.4242 20.7117 68.9203 18.9844 74.7305H0.140625V120.27H18.9844C20.7117 126.08 22.9102 131.576 25.8937 136.915L12.5461 150.262L44.7375 182.454L58.0852 169.106C63.4242 172.09 68.9203 174.288 74.7305 176.016V194.859H120.27V176.016C126.08 174.288 131.576 172.09 136.915 169.106L150.262 182.454L182.454 150.262L169.106 136.915C172.09 131.576 174.288 126.08 176.016 120.27H194.859V74.7305H176.016C174.288 68.9203 171.933 63.4242 169.106 58.0852ZM188.578 113.988H171.148L170.52 116.344C168.792 123.096 166.123 129.691 162.511 135.816L161.255 137.857L173.66 150.262L150.42 173.503L138.014 161.098L135.973 162.354C129.848 165.966 123.253 168.635 116.501 170.363L114.145 170.991V188.578H81.1687V171.148L78.8133 170.52C72.0609 168.792 65.4656 166.123 59.3414 162.511L57.3 161.255L44.8945 173.66L21.4969 150.262L33.9023 137.857L32.6461 135.816C29.0344 129.691 26.3648 123.096 24.6375 116.344L24.0094 113.988H6.42188V81.0117H23.8523L24.4805 78.6562C26.2078 71.9039 28.8773 65.3086 32.4891 59.1844L33.7453 57.143L21.3398 44.7375L44.5805 21.4969L56.9859 33.9023L59.0273 32.6461C65.1516 29.0344 71.7469 26.3648 78.4992 24.6375L80.8547 24.0094V6.42188H113.831V23.8523L116.187 24.4805C122.939 26.2078 129.534 28.8773 135.659 32.4891L137.7 33.7453L150.105 21.3398L173.346 44.5805L160.941 56.9859L162.197 59.0273C165.809 65.1516 168.478 71.7469 170.205 78.4992L170.834 80.8547H188.578V113.988Z" fill="#BCBCBC"/>
<path d="M97.5 47.25C69.8625 47.25 47.25 69.8625 47.25 97.5C47.25 125.137 69.8625 147.75 97.5 147.75C125.137 147.75 147.75 125.137 147.75 97.5C147.75 69.8625 125.137 47.25 97.5 47.25ZM97.5 141.469C73.3172 141.469 53.5312 121.683 53.5312 97.5C53.5312 73.3172 73.3172 53.5312 97.5 53.5312C121.683 53.5312 141.469 73.3172 141.469 97.5C141.469 121.683 121.683 141.469 97.5 141.469Z" fill="#BCBCBC"/>
<path d="M97.3429 93.5741C94.6733 92.3179 92.4749 91.2187 92.4749 87.921C92.4749 85.2515 94.8304 82.896 97.4999 82.896C99.0702 82.896 100.955 83.6812 101.897 85.5655L107.707 82.739C106.451 79.7554 103.624 77.714 100.641 76.9288V74.2593H94.3593V76.9288C89.4913 78.3421 86.0366 82.5819 86.0366 88.2351C86.0366 94.9874 90.4335 97.4999 96.2437 100.012C99.2272 101.269 102.682 102.839 102.682 106.922C102.682 109.748 100.169 112.418 97.3429 112.418C94.5163 112.418 92.789 111.005 91.6897 108.963C89.8054 109.591 87.921 110.219 86.1936 110.691C87.1358 114.302 90.2765 117.443 94.5163 118.385V121.526H100.798V118.385C105.508 116.972 109.12 112.418 109.12 107.079C108.963 99.8554 105.508 97.1858 97.3429 93.5741Z" fill="#BCBCBC"/>
</svg>
