<svg width="68" height="776" viewBox="0 0 68 776" fill="none" xmlns="http://www.w3.org/2000/svg">
<path d="M2.45361 765.771L17.8155 767.752L17.863 752.707L51.1044 757.461L51.1044 771.893L66.2478 773.864L66.2478 711.91L50.9714 709.89L51.0854 724.905L17.7395 720.507L17.578 705.423L2.45361 703.313L2.45361 765.771Z" stroke="#BCBCBC" stroke-width="3" stroke-miterlimit="10"/>
<path d="M2.45361 220.305L17.8155 222.286L17.863 207.24L51.1044 211.985L51.1044 226.416L66.2478 228.397L66.2478 166.433L50.9714 164.413L51.0854 180.597L42.4591 179.458L42.6016 158.975L27.5628 156.767L27.5533 177.497L17.7395 176.209L17.7395 138.75L31.0018 140.305L31.0493 119.129L2.45361 115.147L2.45361 220.305Z" stroke="#BCBCBC" stroke-width="3" stroke-miterlimit="10"/>
<path d="M2.45361 576.366L17.8155 578.347L17.863 563.301L51.1044 568.046L51.1044 582.477L66.2478 584.458L66.0863 534.004L51.0854 532.003L51.0854 536.658L46.9243 536.113L42.1171 528.15L51.1329 522.039L51.0854 528.18L66.0483 530.081L65.9627 469.812L51.0854 467.494L51.0854 482.5L27.6103 496.812L17.7395 481.321L17.7395 464.087L2.45361 461.68L2.45361 515.541L17.7395 518.097L17.7395 503.369L36.0465 534.677L17.7395 532.27L17.7395 522.019L2.45361 519.89L2.45361 576.366Z" stroke="#BCBCBC" stroke-width="3" stroke-miterlimit="10"/>
<path d="M2.45361 700.53L17.8155 702.511L17.863 687.466L51.1044 692.22L51.1044 706.641L66.2478 708.622L66.2478 662.011L50.9714 659.98L51.0854 675.927L25.0167 672.539L66.0102 641.776L66.0102 601.523L17.7965 595.264L17.7395 580.724L2.45361 579.079L2.45361 624.849L17.749 626.404L17.7395 613.983L40.9011 615.311L2.45361 643.291L2.45361 700.53Z" stroke="#BCBCBC" stroke-width="3" stroke-miterlimit="10"/>
<path d="M41.7653 348.599C41.7653 348.599 52.0066 349.352 51.085 356.186C50.6005 359.801 39.8843 352.056 34.7921 365.378C33.1771 351.135 1.96882 332.752 2.45333 381.988C2.46283 382.661 2.45334 458.253 2.45334 458.253L17.8152 460.234L17.8532 445.189L51.0946 449.943L51.0946 464.374L66.0004 466.315L66.0004 404.362L51.104 402.47L51.085 418.397C51.085 418.397 41.4803 417.486 41.4613 417.218C38.7537 375.708 59.7778 402.015 66.0004 384.236C66.3329 383.285 66.0004 358.732 66.0004 358.732C66.6084 341.309 41.7463 340.586 41.7463 340.586L41.7653 348.599ZM28.085 396.22C28.123 401.321 28.161 415.079 28.161 415.079L17.7297 413.583C17.7297 413.583 17.7297 399.588 17.7297 394.368C17.7392 381.473 28.009 383.988 28.085 396.22Z" stroke="#BCBCBC" stroke-width="3" stroke-miterlimit="10"/>
<path d="M51.0849 245.086L2.4436 264.806L2.4531 295.065L51.0849 326.264L51.0849 339.665L66.0002 342.617L66.0002 298.026L51.0754 295.748L51.0849 308.396L43.9692 303.672L43.8837 283.773L51.0374 280.485L51.0374 291.618L65.9147 293.638L66.0002 232.358L51.0849 230.249L51.0849 245.086V245.086ZM35.5235 299.284L24.9307 291.786L35.5235 286.893L35.5235 299.284Z" stroke="#BCBCBC" stroke-width="3" stroke-miterlimit="10"/>
<path d="M2.45361 111.433L31.0018 115.147L31.0018 93.9911L17.7395 91.9606L17.7395 75.2713L51.0853 79.6987L51.0853 95.0607L66.0101 96.9624L66.2476 32.9192L51.0853 31.7307L51.0853 47.9643L17.7395 43.2795L17.7395 25.2036L30.4698 26.7189L31.0018 5.60238L2.45361 1.93767L2.45361 111.433Z" stroke="#BCBCBC" stroke-width="3" stroke-miterlimit="10"/>
</svg>
