<svg width="196" height="196" viewBox="0 0 196 196" fill="none" xmlns="http://www.w3.org/2000/svg">
<g clip-path="url(#clip0_13_347)">
<path d="M17.7375 129.041V162.299C17.7375 164.747 19.7233 166.733 22.1719 166.733H117.364C119.812 166.733 121.798 164.747 121.798 162.299V129.041C121.798 126.592 119.812 124.606 117.364 124.606H22.1719C19.7233 124.606 17.7375 126.592 17.7375 129.041ZM112.929 157.864H79.5223L103.911 133.475H112.929V157.864ZM26.6063 133.475H60.0128L47.6284 145.86C45.8968 147.592 45.8968 150.399 47.6284 152.131C48.4945 152.997 49.6292 153.43 50.764 153.43C51.8988 153.43 53.0335 152.997 53.8996 152.131L72.5555 133.475H91.3688L66.9797 157.864H26.6063V133.475Z" fill="#BCBCBC"/>
<path d="M152.42 80.2199C154.851 80.3254 156.945 78.451 157.063 76.005L160.315 8.86878H178.468L182.504 94.045C182.617 96.4196 184.578 98.2692 186.93 98.2692C187.001 98.2692 187.072 98.2674 187.144 98.2643C189.59 98.1481 191.479 96.071 191.363 93.6246L187.126 4.2242C187.014 1.85934 185.064 0 182.697 0H156.09C153.725 0 151.776 1.85712 151.661 4.22021L148.205 75.5766C148.086 78.0222 149.973 80.1015 152.42 80.2199Z" fill="#BCBCBC"/>
<path d="M193.63 107.379L100.065 58.157C98.6896 57.4333 97.0373 57.4825 95.7079 58.2851C94.378 59.0882 93.5656 60.528 93.5656 62.0814V79.3489L53.2818 58.157C51.9067 57.4333 50.2545 57.4825 48.9251 58.2851C47.5952 59.0882 46.7828 60.528 46.7828 62.0814V79.3489L6.49904 58.157C5.12349 57.4333 3.47168 57.4825 2.14225 58.2851C0.81238 59.0882 0 60.528 0 62.0814V191.566C0 194.014 1.98572 196 4.43439 196H135.101H173.828H191.566C194.014 196 196 194.014 196 191.566V111.303C196 109.656 195.087 108.145 193.63 107.379ZM139.536 187.131V133.475H169.394V187.131H139.536ZM187.131 187.131H178.262V129.041C178.262 126.592 176.277 124.606 173.828 124.606H135.101C132.653 124.606 130.667 126.592 130.667 129.041V187.131H8.86878V69.4247L49.1525 90.6167C50.5281 91.3404 52.1799 91.2912 53.5093 90.4885C54.8392 89.6855 55.6516 88.2456 55.6516 86.6922V69.4247L95.9353 90.6167C97.3109 91.3404 98.9627 91.2912 100.292 90.4885C101.622 89.6855 102.434 88.2456 102.434 86.6922V69.4247L187.131 113.981V187.131Z" fill="#BCBCBC"/>
</g>
<defs>
<clipPath id="clip0_13_347">
<rect width="196" height="196" fill="white"/>
</clipPath>
</defs>
</svg>
