<svg width="135" height="115" viewBox="0 0 135 115" fill="none" xmlns="http://www.w3.org/2000/svg">
<path d="M134.878 83.8906L108.176 1.72731C107.842 0.697063 106.882 0 105.798 0H29.4092C28.3277 0 27.3704 0.694562 27.0337 1.7225L0.124438 83.8856C0.0414375 84.1358 0 84.3983 0 84.6631V112.5C0 113.881 1.11819 115 2.5 115H132.5C133.882 115 135 113.881 135 112.5V84.6631C135 84.4008 134.958 84.1396 134.878 83.8906ZM130 110H5V85.0623L31.2207 5H103.982L130 85.0586V110Z" fill="black"/>
<line x1="4" y1="82.5" x2="113" y2="82.5" stroke="black" stroke-width="5"/>
</svg>
